<?xml version="1.0" encoding="UTF-8"?>
<svg width="1920px" height="1080px" viewBox="0 0 1920 1080" xmlns="http://www.w3.org/2000/svg" xmlns:xlink="http://www.w3.org/1999/xlink" version="1.1">
 <!-- Generated by Pixelmator Pro 2.0.1 -->
 <g id="bobs-pc">
  <g id="group">
   <path id="Path" d="M236.602 618.162 L269.081 618.162 269.081 603.264 C269.081 601.47 270.534 600.016 272.328 600.016 L272.328 593.52 236.602 593.52 Z" fill="#f2ebd9" fill-opacity="1" stroke="none"/>
   <path id="Path-1" d="M347.839 565.283 L157.844 565.283 157.844 577.281 C157.844 582.654 162.215 587.025 167.587 587.025 L338.095 587.025 C343.468 587.025 347.839 582.654 347.839 577.281 Z" fill="#98d9d5" fill-opacity="1" stroke="none"/>
   <path id="Path-2" d="M285.32 534.969 C283.526 534.969 282.072 533.515 282.072 531.721 L282.072 523.106 C282.072 523.097 282.073 523.088 282.073 523.08 282.074 523.033 282.078 522.986 282.08 522.939 282.084 522.871 282.088 522.803 282.095 522.735 282.134 522.421 282.208 522.132 282.322 521.857 L292.662 497.039 C292.666 497.03 292.67 497.021 292.673 497.012 L300.048 479.312 C300.552 478.102 301.735 477.313 303.046 477.313 304.357 477.313 305.54 478.102 306.044 479.312 L313.418 497.008 C313.423 497.02 313.428 497.032 313.433 497.044 L323.771 521.856 C323.886 522.131 323.959 522.42 323.995 522.715 324.006 522.802 324.01 522.871 324.013 522.939 324.016 522.986 324.02 523.033 324.02 523.08 324.02 523.088 324.021 523.097 324.021 523.105 L324.021 531.721 C324.021 533.515 322.568 534.969 320.773 534.969 L320.773 541.465 330.517 541.465 330.517 470.818 275.576 470.818 275.576 541.465 285.32 541.465 Z" fill="#f2ebd9" fill-opacity="1" stroke="none"/>
   <path id="Path-3" d="M157.844 558.787 L347.839 558.787 347.839 463.239 C347.839 457.866 343.468 453.496 338.095 453.496 L167.587 453.496 C162.215 453.496 157.844 457.866 157.844 463.239 Z M269.081 467.57 C269.081 465.776 270.534 464.322 272.328 464.322 L333.765 464.322 C335.559 464.322 337.013 465.776 337.013 467.57 L337.013 544.713 C337.013 546.507 335.559 547.961 333.765 547.961 L272.328 547.961 C270.534 547.961 269.081 546.507 269.081 544.713 Z M171.918 464.322 L255.279 464.322 C257.073 464.322 258.527 465.776 258.527 467.57 258.527 469.363 257.073 470.818 255.279 470.818 L171.918 470.818 C170.123 470.818 168.67 469.363 168.67 467.57 168.67 465.776 170.123 464.322 171.918 464.322 Z M171.918 479.751 L255.279 479.751 C257.073 479.751 258.527 481.205 258.527 482.998 258.527 484.792 257.073 486.246 255.279 486.246 L171.918 486.246 C170.123 486.246 168.67 484.792 168.67 482.998 168.67 481.205 170.123 479.751 171.918 479.751 Z M171.918 495.179 L213.598 495.179 C215.393 495.179 216.846 496.633 216.846 498.427 216.846 500.221 215.393 501.675 213.598 501.675 L171.918 501.675 C170.123 501.675 168.67 500.221 168.67 498.427 168.67 496.633 170.123 495.179 171.918 495.179 Z M171.918 510.608 L255.279 510.608 C257.073 510.608 258.527 512.062 258.527 513.856 258.527 515.649 257.073 517.104 255.279 517.104 L171.918 517.104 C170.123 517.104 168.67 515.649 168.67 513.856 168.67 512.062 170.123 510.608 171.918 510.608 Z M171.918 526.036 L255.279 526.036 C257.073 526.036 258.527 527.491 258.527 529.284 258.527 531.078 257.073 532.532 255.279 532.532 L171.918 532.532 C170.123 532.532 168.67 531.078 168.67 529.284 168.67 527.491 170.123 526.036 171.918 526.036 Z M171.918 541.465 L213.598 541.465 C215.393 541.465 216.846 542.919 216.846 544.713 216.846 546.507 215.393 547.961 213.598 547.961 L171.918 547.961 C170.123 547.961 168.67 546.507 168.67 544.713 168.67 542.919 170.123 541.465 171.918 541.465 Z" fill="#ffffff" fill-opacity="1" stroke="none"/>
   <path id="Path-4" d="M338.095 447 L167.587 447 C158.633 447 151.348 454.285 151.348 463.239 L151.348 577.281 C151.348 586.235 158.633 593.52 167.587 593.52 L230.106 593.52 230.106 618.162 216.032 618.162 C214.238 618.162 212.784 619.616 212.784 621.41 212.784 623.204 214.238 624.658 216.032 624.658 L289.65 624.658 C291.444 624.658 292.898 623.204 292.898 621.41 292.898 619.616 291.444 618.162 289.65 618.162 L275.576 618.162 275.576 603.264 C275.576 601.47 274.123 600.016 272.328 600.016 270.534 600.016 269.081 601.47 269.081 603.264 L269.081 618.162 236.602 618.162 236.602 593.52 338.095 593.52 C347.05 593.52 354.335 586.235 354.335 577.281 L354.335 463.239 C354.335 454.285 347.05 447 338.095 447 Z M338.095 587.024 L167.587 587.024 C162.215 587.024 157.844 582.654 157.844 577.281 L157.844 565.282 347.839 565.282 347.839 577.281 C347.839 582.654 343.468 587.024 338.095 587.024 Z M167.587 453.496 L338.095 453.496 C343.468 453.496 347.839 457.866 347.839 463.239 L347.839 558.787 157.844 558.787 157.844 463.239 C157.844 457.866 162.215 453.496 167.587 453.496 Z" fill="#082947" fill-opacity="1" stroke="none"/>
   <path id="Path-5" d="M171.918 470.818 L255.279 470.818 C257.073 470.818 258.527 469.363 258.527 467.57 258.527 465.776 257.073 464.322 255.279 464.322 L171.918 464.322 C170.123 464.322 168.67 465.776 168.67 467.57 168.67 469.363 170.123 470.818 171.918 470.818 Z" fill="#082947" fill-opacity="1" stroke="none"/>
   <path id="Path-6" d="M171.918 486.246 L255.279 486.246 C257.073 486.246 258.527 484.792 258.527 482.998 258.527 481.205 257.073 479.751 255.279 479.751 L171.918 479.751 C170.123 479.751 168.67 481.205 168.67 482.998 168.67 484.792 170.123 486.246 171.918 486.246 Z" fill="#082947" fill-opacity="1" stroke="none"/>
   <path id="Path-7" d="M171.918 501.675 L213.598 501.675 C215.393 501.675 216.846 500.221 216.846 498.427 216.846 496.633 215.393 495.179 213.598 495.179 L171.918 495.179 C170.123 495.179 168.67 496.633 168.67 498.427 168.67 500.221 170.123 501.675 171.918 501.675 Z" fill="#082947" fill-opacity="1" stroke="none"/>
   <path id="Path-8" d="M171.918 517.104 L255.279 517.104 C257.073 517.104 258.527 515.649 258.527 513.856 258.527 512.062 257.073 510.608 255.279 510.608 L171.918 510.608 C170.123 510.608 168.67 512.062 168.67 513.856 168.67 515.649 170.123 517.104 171.918 517.104 Z" fill="#082947" fill-opacity="1" stroke="none"/>
   <path id="Path-9" d="M171.918 532.532 L255.279 532.532 C257.073 532.532 258.527 531.078 258.527 529.284 258.527 527.491 257.073 526.036 255.279 526.036 L171.918 526.036 C170.123 526.036 168.67 527.491 168.67 529.284 168.67 531.078 170.123 532.532 171.918 532.532 Z" fill="#082947" fill-opacity="1" stroke="none"/>
   <path id="Path-10" d="M171.918 547.961 L213.598 547.961 C215.393 547.961 216.846 546.507 216.846 544.713 216.846 542.919 215.393 541.465 213.598 541.465 L171.918 541.465 C170.123 541.465 168.67 542.919 168.67 544.713 168.67 546.507 170.123 547.961 171.918 547.961 Z" fill="#082947" fill-opacity="1" stroke="none"/>
   <path id="Path-11" d="M317.526 531.721 L317.526 527.801 C316.336 528.056 315.115 528.193 313.88 528.193 311.18 528.193 308.587 527.575 306.294 526.444 L306.294 531.722 C306.294 533.516 304.84 534.97 303.046 534.97 301.252 534.97 299.798 533.516 299.798 531.722 L299.798 526.444 C297.505 527.575 294.913 528.193 292.213 528.193 290.978 528.193 289.756 528.056 288.567 527.801 L288.567 531.721 C288.567 533.515 287.114 534.969 285.319 534.969 L285.319 541.465 320.773 541.465 320.773 534.969 C318.98 534.969 317.526 533.515 317.526 531.721 Z" fill="#98d9d5" fill-opacity="1" stroke="none"/>
   <path id="Path-12" d="M300.532 495.04 L305.561 495.04 303.047 489.006 Z" fill="#98d9d5" fill-opacity="1" stroke="none"/>
   <path id="Path-13" d="M316.531 521.368 L308.267 501.536 297.825 501.536 289.562 521.368 C290.418 521.583 291.308 521.697 292.213 521.697 295.575 521.697 298.63 520.201 300.386 517.696 300.994 516.829 301.987 516.312 303.046 516.312 304.105 516.312 305.098 516.829 305.706 517.695 307.462 520.201 310.518 521.697 313.88 521.697 314.785 521.697 315.675 521.583 316.531 521.368 Z" fill="#ffcc75" fill-opacity="1" stroke="none"/>
   <path id="Path-14" d="M288.568 531.721 L288.568 527.801 C289.757 528.056 290.978 528.193 292.214 528.193 294.913 528.193 297.506 527.575 299.799 526.444 L299.799 531.722 C299.799 533.516 301.253 534.97 303.047 534.97 304.841 534.97 306.294 533.516 306.294 531.722 L306.294 526.444 C308.587 527.575 311.18 528.193 313.88 528.193 315.116 528.193 316.337 528.056 317.526 527.801 L317.526 531.721 C317.526 533.515 318.98 534.969 320.774 534.969 322.568 534.969 324.022 533.515 324.022 531.721 L324.022 523.106 C324.022 523.097 324.02 523.088 324.02 523.08 324.02 523.033 324.016 522.986 324.014 522.939 324.01 522.871 324.006 522.803 323.998 522.735 323.96 522.421 323.886 522.132 323.772 521.857 L313.433 497.045 C313.428 497.033 313.423 497.021 313.418 497.008 L306.045 479.312 C305.541 478.102 304.357 477.314 303.047 477.314 301.736 477.314 300.553 478.102 300.049 479.312 L292.674 497.012 C292.67 497.021 292.666 497.03 292.663 497.04 L282.322 521.857 C282.208 522.132 282.134 522.421 282.099 522.716 282.088 522.803 282.084 522.872 282.081 522.94 282.078 522.986 282.074 523.034 282.074 523.08 282.074 523.089 282.072 523.098 282.072 523.106 L282.072 531.722 C282.072 533.516 283.526 534.97 285.32 534.97 287.114 534.97 288.568 533.515 288.568 531.721 Z M305.706 517.695 C305.098 516.829 304.105 516.312 303.046 516.312 301.987 516.312 300.995 516.829 300.386 517.696 298.63 520.201 295.575 521.697 292.213 521.697 291.308 521.697 290.418 521.584 289.562 521.368 L297.825 501.536 308.267 501.536 316.531 521.368 C315.675 521.583 314.785 521.697 313.88 521.697 310.518 521.697 307.462 520.201 305.706 517.695 Z M300.532 495.04 L303.047 489.006 305.561 495.04 Z" fill="#082947" fill-opacity="1" stroke="none"/>
   <path id="Path-15" d="M272.328 547.961 L333.765 547.961 C335.559 547.961 337.013 546.507 337.013 544.713 L337.013 467.57 C337.013 465.776 335.559 464.322 333.765 464.322 L272.328 464.322 C270.534 464.322 269.081 465.776 269.081 467.57 L269.081 544.713 C269.081 546.507 270.535 547.961 272.328 547.961 Z M275.576 470.818 L330.517 470.818 330.517 541.465 275.576 541.465 Z" fill="#082947" fill-opacity="1" stroke="none"/>
  </g>
  <defs>
   <text id="string" transform="matrix(1.0 0.0 0.0 1.0 155.0 395.0)" y="24.0" font-size="33" x="24.98749999999997" text-decoration="none" fill="#000000" font-family="HoeflerText-Regular, Hoefler Text">Bobs PC</text>
  </defs>
  <use id="Bobs-PC" xlink:href="#string"/>
 </g>
 <g id="james-pc">
  <g id="group-1">
   <path id="Path-16" d="M1256.564 959.864 L1288.961 959.864 1288.961 945.003 C1288.961 943.214 1290.411 941.764 1292.2 941.764 L1292.2 935.284 1256.564 935.284 Z" fill="#f2ebd9" fill-opacity="1" stroke="none"/>
   <path id="Path-17" d="M1367.521 907.118 L1178.004 907.118 1178.004 919.086 C1178.004 924.445 1182.364 928.805 1187.723 928.805 L1357.802 928.805 C1363.161 928.805 1367.521 924.445 1367.521 919.086 Z" fill="#98d9d5" fill-opacity="1" stroke="none"/>
   <path id="Path-18" d="M1305.159 876.881 C1303.37 876.881 1301.92 875.43 1301.92 873.641 L1301.92 865.047 C1301.92 865.038 1301.921 865.03 1301.921 865.022 1301.921 864.974 1301.925 864.928 1301.928 864.881 1301.931 864.813 1301.935 864.745 1301.943 864.678 1301.981 864.364 1302.055 864.076 1302.169 863.801 L1312.483 839.046 C1312.487 839.037 1312.49 839.028 1312.494 839.019 L1319.85 821.364 C1320.353 820.157 1321.533 819.37 1322.841 819.37 1324.148 819.37 1325.329 820.156 1325.831 821.364 L1333.186 839.015 C1333.192 839.027 1333.197 839.039 1333.201 839.051 L1343.514 863.801 C1343.628 864.075 1343.701 864.364 1343.737 864.657 1343.748 864.745 1343.752 864.813 1343.755 864.881 1343.758 864.927 1343.761 864.974 1343.762 865.021 1343.762 865.03 1343.763 865.038 1343.763 865.047 L1343.763 873.641 C1343.763 875.43 1342.313 876.88 1340.524 876.88 L1340.524 883.36 1350.243 883.36 1350.243 812.891 1295.44 812.891 1295.44 883.36 1305.159 883.36 Z" fill="#f2ebd9" fill-opacity="1" stroke="none"/>
   <path id="Path-19" d="M1178.004 900.639 L1367.521 900.639 1367.521 805.332 C1367.521 799.972 1363.161 795.612 1357.802 795.612 L1187.723 795.612 C1182.364 795.612 1178.004 799.972 1178.004 805.332 Z M1288.961 809.651 C1288.961 807.862 1290.411 806.411 1292.2 806.411 L1353.482 806.411 C1355.272 806.411 1356.722 807.862 1356.722 809.651 L1356.722 886.6 C1356.722 888.389 1355.272 889.84 1353.482 889.84 L1292.2 889.84 C1290.411 889.84 1288.961 888.389 1288.961 886.6 Z M1192.042 806.411 L1275.194 806.411 C1276.984 806.411 1278.434 807.862 1278.434 809.651 1278.434 811.44 1276.984 812.891 1275.194 812.891 L1192.042 812.891 C1190.253 812.891 1188.803 811.44 1188.803 809.651 1188.803 807.862 1190.253 806.411 1192.042 806.411 Z M1192.042 821.801 L1275.194 821.801 C1276.984 821.801 1278.434 823.252 1278.434 825.041 1278.434 826.83 1276.984 828.281 1275.194 828.281 L1192.042 828.281 C1190.253 828.281 1188.803 826.83 1188.803 825.041 1188.803 823.252 1190.253 821.801 1192.042 821.801 Z M1192.042 837.191 L1233.618 837.191 C1235.408 837.191 1236.858 838.641 1236.858 840.431 1236.858 842.22 1235.408 843.67 1233.618 843.67 L1192.042 843.67 C1190.253 843.67 1188.803 842.22 1188.803 840.431 1188.803 838.641 1190.253 837.191 1192.042 837.191 Z M1192.042 852.581 L1275.194 852.581 C1276.984 852.581 1278.434 854.031 1278.434 855.82 1278.434 857.61 1276.984 859.06 1275.194 859.06 L1192.042 859.06 C1190.253 859.06 1188.803 857.61 1188.803 855.82 1188.803 854.031 1190.253 852.581 1192.042 852.581 Z M1192.042 867.971 L1275.194 867.971 C1276.984 867.971 1278.434 869.421 1278.434 871.21 1278.434 872.999 1276.984 874.45 1275.194 874.45 L1192.042 874.45 C1190.253 874.45 1188.803 872.999 1188.803 871.21 1188.803 869.421 1190.253 867.971 1192.042 867.971 Z M1192.042 883.36 L1233.618 883.36 C1235.408 883.36 1236.858 884.811 1236.858 886.6 1236.858 888.389 1235.408 889.84 1233.618 889.84 L1192.042 889.84 C1190.253 889.84 1188.803 888.389 1188.803 886.6 1188.803 884.811 1190.253 883.36 1192.042 883.36 Z" fill="#ffffff" fill-opacity="1" stroke="none"/>
   <path id="Path-20" d="M1357.802 789.133 L1187.723 789.133 C1178.791 789.133 1171.525 796.4 1171.525 805.332 L1171.525 919.086 C1171.525 928.018 1178.791 935.284 1187.723 935.284 L1250.085 935.284 1250.085 959.864 1236.046 959.864 C1234.256 959.864 1232.806 961.315 1232.806 963.104 1232.806 964.893 1234.256 966.344 1236.046 966.344 L1309.479 966.344 C1311.268 966.344 1312.718 964.893 1312.718 963.104 1312.718 961.315 1311.268 959.864 1309.479 959.864 L1295.44 959.864 1295.44 945.003 C1295.44 943.214 1293.99 941.764 1292.2 941.764 1290.411 941.764 1288.961 943.214 1288.961 945.003 L1288.961 959.864 1256.564 959.864 1256.564 935.284 1357.802 935.284 C1366.734 935.284 1374 928.018 1374 919.086 L1374 805.332 C1374 796.4 1366.734 789.133 1357.802 789.133 Z M1357.802 928.805 L1187.723 928.805 C1182.364 928.805 1178.004 924.445 1178.004 919.086 L1178.004 907.117 1367.521 907.117 1367.521 919.086 C1367.521 924.445 1363.161 928.805 1357.802 928.805 Z M1187.723 795.612 L1357.802 795.612 C1363.161 795.612 1367.521 799.972 1367.521 805.332 L1367.521 900.639 1178.004 900.639 1178.004 805.332 C1178.004 799.972 1182.364 795.612 1187.723 795.612 Z" fill="#082947" fill-opacity="1" stroke="none"/>
   <path id="Path-21" d="M1192.042 812.891 L1275.194 812.891 C1276.984 812.891 1278.434 811.44 1278.434 809.651 1278.434 807.862 1276.984 806.411 1275.194 806.411 L1192.042 806.411 C1190.253 806.411 1188.803 807.862 1188.803 809.651 1188.803 811.44 1190.253 812.891 1192.042 812.891 Z" fill="#082947" fill-opacity="1" stroke="none"/>
   <path id="Path-22" d="M1192.042 828.281 L1275.194 828.281 C1276.984 828.281 1278.434 826.83 1278.434 825.041 1278.434 823.252 1276.984 821.801 1275.194 821.801 L1192.042 821.801 C1190.253 821.801 1188.803 823.252 1188.803 825.041 1188.803 826.83 1190.253 828.281 1192.042 828.281 Z" fill="#082947" fill-opacity="1" stroke="none"/>
   <path id="Path-23" d="M1192.042 843.67 L1233.618 843.67 C1235.408 843.67 1236.858 842.22 1236.858 840.431 1236.858 838.641 1235.408 837.191 1233.618 837.191 L1192.042 837.191 C1190.253 837.191 1188.803 838.641 1188.803 840.431 1188.803 842.22 1190.253 843.67 1192.042 843.67 Z" fill="#082947" fill-opacity="1" stroke="none"/>
   <path id="Path-24" d="M1192.042 859.06 L1275.194 859.06 C1276.984 859.06 1278.434 857.61 1278.434 855.82 1278.434 854.031 1276.984 852.581 1275.194 852.581 L1192.042 852.581 C1190.253 852.581 1188.803 854.031 1188.803 855.82 1188.803 857.61 1190.253 859.06 1192.042 859.06 Z" fill="#082947" fill-opacity="1" stroke="none"/>
   <path id="Path-25" d="M1192.042 874.45 L1275.194 874.45 C1276.984 874.45 1278.434 872.999 1278.434 871.21 1278.434 869.421 1276.984 867.971 1275.194 867.971 L1192.042 867.971 C1190.253 867.971 1188.803 869.421 1188.803 871.21 1188.803 872.999 1190.253 874.45 1192.042 874.45 Z" fill="#082947" fill-opacity="1" stroke="none"/>
   <path id="Path-26" d="M1192.042 889.84 L1233.618 889.84 C1235.408 889.84 1236.858 888.389 1236.858 886.6 1236.858 884.811 1235.408 883.36 1233.618 883.36 L1192.042 883.36 C1190.253 883.36 1188.803 884.811 1188.803 886.6 1188.803 888.389 1190.253 889.84 1192.042 889.84 Z" fill="#082947" fill-opacity="1" stroke="none"/>
   <path id="Path-27" d="M1337.284 873.641 L1337.284 869.73 C1336.098 869.985 1334.88 870.122 1333.647 870.122 1330.954 870.122 1328.368 869.505 1326.081 868.377 L1326.081 873.642 C1326.081 875.431 1324.63 876.881 1322.841 876.881 1321.051 876.881 1319.601 875.431 1319.601 873.642 L1319.601 868.377 C1317.314 869.505 1314.728 870.122 1312.035 870.122 1310.803 870.122 1309.585 869.985 1308.398 869.73 L1308.398 873.641 C1308.398 875.43 1306.948 876.881 1305.159 876.881 L1305.159 883.36 1340.523 883.36 1340.523 876.881 C1338.734 876.881 1337.284 875.43 1337.284 873.641 Z" fill="#98d9d5" fill-opacity="1" stroke="none"/>
   <path id="Path-28" d="M1320.333 837.052 L1325.349 837.052 1322.841 831.033 Z" fill="#98d9d5" fill-opacity="1" stroke="none"/>
   <path id="Path-29" d="M1336.292 863.314 L1328.049 843.532 1317.633 843.532 1309.391 863.314 C1310.245 863.529 1311.133 863.642 1312.035 863.642 1315.388 863.642 1318.436 862.15 1320.188 859.651 1320.794 858.786 1321.784 858.271 1322.841 858.271 1323.897 858.271 1324.887 858.786 1325.494 859.651 1327.246 862.15 1330.294 863.642 1333.647 863.642 1334.55 863.642 1335.438 863.529 1336.292 863.314 Z" fill="#ffcc75" fill-opacity="1" stroke="none"/>
   <path id="Path-30" d="M1308.399 873.641 L1308.399 869.73 C1309.585 869.985 1310.803 870.122 1312.036 870.122 1314.728 870.122 1317.314 869.505 1319.602 868.377 L1319.602 873.642 C1319.602 875.431 1321.052 876.881 1322.841 876.881 1324.631 876.881 1326.081 875.431 1326.081 873.642 L1326.081 868.377 C1328.368 869.505 1330.954 870.122 1333.648 870.122 1334.88 870.122 1336.098 869.985 1337.284 869.73 L1337.284 873.641 C1337.284 875.43 1338.734 876.881 1340.524 876.881 1342.314 876.881 1343.764 875.43 1343.764 873.641 L1343.764 865.047 C1343.764 865.038 1343.762 865.03 1343.762 865.022 1343.762 864.974 1343.758 864.928 1343.755 864.881 1343.752 864.813 1343.748 864.745 1343.74 864.678 1343.702 864.364 1343.628 864.076 1343.514 863.801 L1333.202 839.052 C1333.197 839.04 1333.192 839.028 1333.187 839.015 L1325.832 821.364 C1325.329 820.157 1324.149 819.371 1322.841 819.371 1321.534 819.371 1320.354 820.157 1319.851 821.364 L1312.495 839.019 C1312.491 839.029 1312.487 839.038 1312.483 839.047 L1302.169 863.802 C1302.055 864.076 1301.982 864.365 1301.946 864.658 1301.935 864.746 1301.932 864.814 1301.928 864.882 1301.926 864.928 1301.922 864.975 1301.921 865.022 1301.921 865.031 1301.92 865.039 1301.92 865.047 L1301.92 873.642 C1301.92 875.431 1303.37 876.881 1305.16 876.881 1306.949 876.881 1308.399 875.43 1308.399 873.641 Z M1325.494 859.651 C1324.888 858.786 1323.897 858.271 1322.841 858.271 1321.784 858.271 1320.795 858.786 1320.188 859.651 1318.436 862.15 1315.388 863.642 1312.035 863.642 1311.133 863.642 1310.244 863.529 1309.391 863.314 L1317.633 843.532 1328.049 843.532 1336.292 863.314 C1335.438 863.529 1334.55 863.642 1333.648 863.642 1330.294 863.642 1327.246 862.15 1325.494 859.651 Z M1320.333 837.052 L1322.841 831.033 1325.349 837.052 Z" fill="#082947" fill-opacity="1" stroke="none"/>
   <path id="Path-31" d="M1292.2 889.84 L1353.482 889.84 C1355.272 889.84 1356.722 888.389 1356.722 886.6 L1356.722 809.651 C1356.722 807.862 1355.272 806.411 1353.482 806.411 L1292.2 806.411 C1290.411 806.411 1288.961 807.862 1288.961 809.651 L1288.961 886.6 C1288.961 888.389 1290.411 889.84 1292.2 889.84 Z M1295.44 812.891 L1350.243 812.891 1350.243 883.36 1295.44 883.36 Z" fill="#082947" fill-opacity="1" stroke="none"/>
  </g>
  <g id="key-list-seg">
   <path id="Path-32" d="M1725.589 912.952 L1725.589 929.651 1742.287 912.952 Z" fill="#ffffff" fill-opacity="1" stroke="none"/>
   <path id="Path-33" d="M1721.294 910.805 C1721.294 909.619 1722.255 908.658 1723.442 908.658 L1745.342 908.658 1745.342 815.33 1685.908 815.33 1685.908 830.36 C1685.908 834.701 1682.376 838.233 1678.035 838.233 1673.695 838.233 1670.163 834.701 1670.163 830.36 L1670.163 821.771 C1670.163 820.585 1671.124 819.624 1672.31 819.624 1673.496 819.624 1674.457 820.585 1674.457 821.771 L1674.457 830.36 C1674.457 832.333 1676.062 833.938 1678.035 833.938 1680.009 833.938 1681.614 832.333 1681.614 830.36 L1681.614 815.33 1657.381 815.33 1657.381 932.706 1721.294 932.706 Z M1672.411 845.533 L1730.312 845.533 C1731.498 845.533 1732.459 846.494 1732.459 847.68 1732.459 848.866 1731.498 849.827 1730.312 849.827 L1672.411 849.827 C1671.225 849.827 1670.264 848.866 1670.264 847.68 1670.264 846.494 1671.225 845.533 1672.411 845.533 Z M1672.411 858.416 L1730.312 858.416 C1731.498 858.416 1732.459 859.377 1732.459 860.563 1732.459 861.749 1731.498 862.71 1730.312 862.71 L1672.411 862.71 C1671.225 862.71 1670.264 861.749 1670.264 860.563 1670.264 859.377 1671.225 858.416 1672.411 858.416 Z M1672.411 871.298 L1730.312 871.298 C1731.498 871.298 1732.459 872.259 1732.459 873.445 1732.459 874.631 1731.498 875.592 1730.312 875.592 L1672.411 875.592 C1671.225 875.592 1670.264 874.631 1670.264 873.445 1670.264 872.259 1671.225 871.298 1672.411 871.298 Z M1672.411 884.181 L1730.312 884.181 C1731.498 884.181 1732.459 885.142 1732.459 886.328 1732.459 887.514 1731.498 888.475 1730.312 888.475 L1672.411 888.475 C1671.225 888.475 1670.264 887.514 1670.264 886.328 1670.264 885.142 1671.225 884.181 1672.411 884.181 Z M1670.264 899.211 C1670.264 898.025 1671.225 897.064 1672.411 897.064 L1730.312 897.064 C1731.498 897.064 1732.459 898.025 1732.459 899.211 1732.459 900.397 1731.498 901.358 1730.312 901.358 L1672.411 901.358 C1671.225 901.358 1670.264 900.397 1670.264 899.211 Z" fill="#f7ba00" fill-opacity="1" stroke="none"/>
   <path id="Path-34" d="M1749.636 910.805 C1749.636 910.786 1749.636 813.183 1749.636 813.183 1749.636 811.997 1748.675 811.036 1747.489 811.036 L1685.37 811.036 C1683.838 806.068 1679.205 802.447 1673.741 802.447 1668.365 802.447 1663.661 806.03 1662.114 811.036 L1655.234 811.036 C1654.048 811.036 1653.087 811.997 1653.087 813.183 L1653.087 934.853 C1653.087 936.039 1654.048 937 1655.234 937 L1723.423 937 C1724.117 937 1724.719 936.687 1725.113 936.2 L1726.46 934.853 1748.836 912.477 C1749.323 912.083 1749.636 911.481 1749.636 910.805 Z M1657.381 815.33 L1681.614 815.33 1681.614 830.36 C1681.614 832.333 1680.009 833.938 1678.035 833.938 1676.062 833.938 1674.457 832.333 1674.457 830.36 L1674.457 821.771 C1674.457 820.585 1673.496 819.624 1672.31 819.624 1671.124 819.624 1670.163 820.585 1670.163 821.771 L1670.163 830.36 C1670.163 834.701 1673.694 838.233 1678.035 838.233 1682.376 838.233 1685.908 834.701 1685.908 830.36 L1685.908 815.33 1745.342 815.33 1745.342 908.658 1723.442 908.658 C1722.255 908.658 1721.294 909.619 1721.294 910.805 L1721.294 932.706 1657.381 932.706 Z M1725.589 912.952 L1742.287 912.952 1725.589 929.651 Z M1673.741 806.742 C1676.794 806.742 1679.444 808.489 1680.75 811.036 L1666.732 811.036 C1668.05 808.474 1670.733 806.742 1673.741 806.742 Z" fill="#082947" fill-opacity="1" stroke="none"/>
   <path id="Path-35" d="M1730.312 901.358 C1731.498 901.358 1732.459 900.397 1732.459 899.211 1732.459 898.025 1731.498 897.064 1730.312 897.064 L1672.411 897.064 C1671.225 897.064 1670.264 898.025 1670.264 899.211 1670.264 900.397 1671.225 901.358 1672.411 901.358 Z" fill="#082947" fill-opacity="1" stroke="none"/>
   <path id="Path-36" d="M1672.411 888.475 L1730.312 888.475 C1731.498 888.475 1732.459 887.514 1732.459 886.328 1732.459 885.142 1731.498 884.181 1730.312 884.181 L1672.411 884.181 C1671.225 884.181 1670.264 885.142 1670.264 886.328 1670.264 887.514 1671.225 888.475 1672.411 888.475 Z" fill="#082947" fill-opacity="1" stroke="none"/>
   <path id="Path-37" d="M1672.411 875.592 L1730.312 875.592 C1731.498 875.592 1732.459 874.631 1732.459 873.445 1732.459 872.259 1731.498 871.298 1730.312 871.298 L1672.411 871.298 C1671.225 871.298 1670.264 872.259 1670.264 873.445 1670.264 874.631 1671.225 875.592 1672.411 875.592 Z" fill="#082947" fill-opacity="1" stroke="none"/>
   <path id="Path-38" d="M1672.411 862.71 L1730.312 862.71 C1731.498 862.71 1732.459 861.749 1732.459 860.563 1732.459 859.377 1731.498 858.416 1730.312 858.416 L1672.411 858.416 C1671.225 858.416 1670.264 859.377 1670.264 860.563 1670.264 861.749 1671.225 862.71 1672.411 862.71 Z" fill="#082947" fill-opacity="1" stroke="none"/>
   <path id="Path-39" d="M1672.411 849.827 L1730.312 849.827 C1731.498 849.827 1732.459 848.866 1732.459 847.68 1732.459 846.494 1731.498 845.533 1730.312 845.533 L1672.411 845.533 C1671.225 845.533 1670.264 846.494 1670.264 847.68 1670.264 848.866 1671.225 849.827 1672.411 849.827 Z" fill="#082947" fill-opacity="1" stroke="none"/>
  </g>
  <defs>
   <text id="string-1" transform="matrix(1.0 0.0 0.0 1.0 1169.96540105886 728.22752814154)" text-decoration="none" x="19.044842245931108" y="24.0" font-family="HoeflerText-Regular, Hoefler Text" fill="#000000" font-size="32.917">James PC</text>
  </defs>
  <use id="James-PC" xlink:href="#string-1"/>
  <defs>
   <text id="string-2" transform="matrix(1.0 0.0 0.0 1.0 1393.26728636982 837.410249264)">
    <tspan font-size="32.917" fill="#000000" text-decoration="none" font-family="HoeflerText-Regular, Hoefler Text" x="33.781611182654075" y="24.0">segment of </tspan>
    <tspan font-size="32.917" fill="#000000" text-decoration="none" font-family="HoeflerText-Regular, Hoefler Text" x="17.915663863814572" y="79.99999904632568">Bobs key-list</tspan>
   </text>
  </defs>
  <use id="segment-of-keylist-copy" xlink:href="#string-2"/>
 </g>
 <g id="mikes-pc">
  <g id="group-2">
   <path id="Path-40" d="M1256.564 617.864 L1288.961 617.864 1288.961 603.003 C1288.961 601.214 1290.411 599.764 1292.2 599.764 L1292.2 593.284 1256.564 593.284 Z" fill="#f2ebd9" fill-opacity="1" stroke="none"/>
   <path id="Path-41" d="M1367.521 565.118 L1178.004 565.118 1178.004 577.086 C1178.004 582.445 1182.364 586.805 1187.723 586.805 L1357.802 586.805 C1363.161 586.805 1367.521 582.445 1367.521 577.086 Z" fill="#98d9d5" fill-opacity="1" stroke="none"/>
   <path id="Path-42" d="M1305.159 534.881 C1303.37 534.881 1301.92 533.43 1301.92 531.641 L1301.92 523.047 C1301.92 523.038 1301.921 523.03 1301.921 523.022 1301.921 522.974 1301.925 522.928 1301.928 522.881 1301.931 522.813 1301.935 522.745 1301.943 522.678 1301.981 522.364 1302.055 522.076 1302.169 521.801 L1312.483 497.046 C1312.487 497.037 1312.49 497.028 1312.494 497.019 L1319.85 479.364 C1320.353 478.157 1321.533 477.37 1322.841 477.37 1324.148 477.37 1325.329 478.156 1325.831 479.364 L1333.186 497.015 C1333.192 497.027 1333.197 497.039 1333.201 497.051 L1343.514 521.801 C1343.628 522.075 1343.701 522.364 1343.737 522.657 1343.748 522.745 1343.752 522.813 1343.755 522.881 1343.758 522.927 1343.761 522.974 1343.762 523.021 1343.762 523.03 1343.763 523.038 1343.763 523.047 L1343.763 531.641 C1343.763 533.43 1342.313 534.88 1340.524 534.88 L1340.524 541.36 1350.243 541.36 1350.243 470.891 1295.44 470.891 1295.44 541.36 1305.159 541.36 Z" fill="#f2ebd9" fill-opacity="1" stroke="none"/>
   <path id="Path-43" d="M1178.004 558.639 L1367.521 558.639 1367.521 463.331 C1367.521 457.972 1363.161 453.612 1357.802 453.612 L1187.723 453.612 C1182.364 453.612 1178.004 457.972 1178.004 463.331 Z M1288.961 467.651 C1288.961 465.862 1290.411 464.411 1292.2 464.411 L1353.482 464.411 C1355.272 464.411 1356.722 465.862 1356.722 467.651 L1356.722 544.6 C1356.722 546.389 1355.272 547.84 1353.482 547.84 L1292.2 547.84 C1290.411 547.84 1288.961 546.389 1288.961 544.6 Z M1192.042 464.411 L1275.194 464.411 C1276.984 464.411 1278.434 465.862 1278.434 467.651 1278.434 469.44 1276.984 470.891 1275.194 470.891 L1192.042 470.891 C1190.253 470.891 1188.803 469.44 1188.803 467.651 1188.803 465.862 1190.253 464.411 1192.042 464.411 Z M1192.042 479.801 L1275.194 479.801 C1276.984 479.801 1278.434 481.252 1278.434 483.041 1278.434 484.83 1276.984 486.281 1275.194 486.281 L1192.042 486.281 C1190.253 486.281 1188.803 484.83 1188.803 483.041 1188.803 481.252 1190.253 479.801 1192.042 479.801 Z M1192.042 495.191 L1233.618 495.191 C1235.408 495.191 1236.858 496.641 1236.858 498.431 1236.858 500.22 1235.408 501.67 1233.618 501.67 L1192.042 501.67 C1190.253 501.67 1188.803 500.22 1188.803 498.431 1188.803 496.641 1190.253 495.191 1192.042 495.191 Z M1192.042 510.581 L1275.194 510.581 C1276.984 510.581 1278.434 512.031 1278.434 513.82 1278.434 515.61 1276.984 517.06 1275.194 517.06 L1192.042 517.06 C1190.253 517.06 1188.803 515.61 1188.803 513.82 1188.803 512.031 1190.253 510.581 1192.042 510.581 Z M1192.042 525.971 L1275.194 525.971 C1276.984 525.971 1278.434 527.421 1278.434 529.21 1278.434 530.999 1276.984 532.45 1275.194 532.45 L1192.042 532.45 C1190.253 532.45 1188.803 530.999 1188.803 529.21 1188.803 527.421 1190.253 525.971 1192.042 525.971 Z M1192.042 541.36 L1233.618 541.36 C1235.408 541.36 1236.858 542.811 1236.858 544.6 1236.858 546.389 1235.408 547.84 1233.618 547.84 L1192.042 547.84 C1190.253 547.84 1188.803 546.389 1188.803 544.6 1188.803 542.811 1190.253 541.36 1192.042 541.36 Z" fill="#ffffff" fill-opacity="1" stroke="none"/>
   <path id="Path-44" d="M1357.802 447.133 L1187.723 447.133 C1178.791 447.133 1171.525 454.399 1171.525 463.331 L1171.525 577.086 C1171.525 586.018 1178.791 593.284 1187.723 593.284 L1250.085 593.284 1250.085 617.864 1236.046 617.864 C1234.256 617.864 1232.806 619.315 1232.806 621.104 1232.806 622.893 1234.256 624.344 1236.046 624.344 L1309.479 624.344 C1311.268 624.344 1312.718 622.893 1312.718 621.104 1312.718 619.315 1311.268 617.864 1309.479 617.864 L1295.44 617.864 1295.44 603.003 C1295.44 601.214 1293.99 599.764 1292.2 599.764 1290.411 599.764 1288.961 601.214 1288.961 603.003 L1288.961 617.864 1256.564 617.864 1256.564 593.284 1357.802 593.284 C1366.734 593.284 1374 586.018 1374 577.086 L1374 463.331 C1374 454.399 1366.734 447.133 1357.802 447.133 Z M1357.802 586.805 L1187.723 586.805 C1182.364 586.805 1178.004 582.445 1178.004 577.086 L1178.004 565.117 1367.521 565.117 1367.521 577.086 C1367.521 582.445 1363.161 586.805 1357.802 586.805 Z M1187.723 453.612 L1357.802 453.612 C1363.161 453.612 1367.521 457.972 1367.521 463.331 L1367.521 558.639 1178.004 558.639 1178.004 463.331 C1178.004 457.972 1182.364 453.612 1187.723 453.612 Z" fill="#082947" fill-opacity="1" stroke="none"/>
   <path id="Path-45" d="M1192.042 470.891 L1275.194 470.891 C1276.984 470.891 1278.434 469.44 1278.434 467.651 1278.434 465.862 1276.984 464.411 1275.194 464.411 L1192.042 464.411 C1190.253 464.411 1188.803 465.862 1188.803 467.651 1188.803 469.44 1190.253 470.891 1192.042 470.891 Z" fill="#082947" fill-opacity="1" stroke="none"/>
   <path id="Path-46" d="M1192.042 486.281 L1275.194 486.281 C1276.984 486.281 1278.434 484.83 1278.434 483.041 1278.434 481.252 1276.984 479.801 1275.194 479.801 L1192.042 479.801 C1190.253 479.801 1188.803 481.252 1188.803 483.041 1188.803 484.83 1190.253 486.281 1192.042 486.281 Z" fill="#082947" fill-opacity="1" stroke="none"/>
   <path id="Path-47" d="M1192.042 501.67 L1233.618 501.67 C1235.408 501.67 1236.858 500.22 1236.858 498.431 1236.858 496.641 1235.408 495.191 1233.618 495.191 L1192.042 495.191 C1190.253 495.191 1188.803 496.641 1188.803 498.431 1188.803 500.22 1190.253 501.67 1192.042 501.67 Z" fill="#082947" fill-opacity="1" stroke="none"/>
   <path id="Path-48" d="M1192.042 517.06 L1275.194 517.06 C1276.984 517.06 1278.434 515.61 1278.434 513.82 1278.434 512.031 1276.984 510.581 1275.194 510.581 L1192.042 510.581 C1190.253 510.581 1188.803 512.031 1188.803 513.82 1188.803 515.61 1190.253 517.06 1192.042 517.06 Z" fill="#082947" fill-opacity="1" stroke="none"/>
   <path id="Path-49" d="M1192.042 532.45 L1275.194 532.45 C1276.984 532.45 1278.434 530.999 1278.434 529.21 1278.434 527.421 1276.984 525.971 1275.194 525.971 L1192.042 525.971 C1190.253 525.971 1188.803 527.421 1188.803 529.21 1188.803 530.999 1190.253 532.45 1192.042 532.45 Z" fill="#082947" fill-opacity="1" stroke="none"/>
   <path id="Path-50" d="M1192.042 547.84 L1233.618 547.84 C1235.408 547.84 1236.858 546.389 1236.858 544.6 1236.858 542.811 1235.408 541.36 1233.618 541.36 L1192.042 541.36 C1190.253 541.36 1188.803 542.811 1188.803 544.6 1188.803 546.389 1190.253 547.84 1192.042 547.84 Z" fill="#082947" fill-opacity="1" stroke="none"/>
   <path id="Path-51" d="M1337.284 531.641 L1337.284 527.73 C1336.098 527.985 1334.88 528.122 1333.647 528.122 1330.954 528.122 1328.368 527.505 1326.081 526.377 L1326.081 531.642 C1326.081 533.431 1324.63 534.881 1322.841 534.881 1321.051 534.881 1319.601 533.431 1319.601 531.642 L1319.601 526.377 C1317.314 527.505 1314.728 528.122 1312.035 528.122 1310.803 528.122 1309.585 527.985 1308.398 527.73 L1308.398 531.641 C1308.398 533.43 1306.948 534.881 1305.159 534.881 L1305.159 541.36 1340.523 541.36 1340.523 534.881 C1338.734 534.881 1337.284 533.43 1337.284 531.641 Z" fill="#98d9d5" fill-opacity="1" stroke="none"/>
   <path id="Path-52" d="M1320.333 495.052 L1325.349 495.052 1322.841 489.033 Z" fill="#98d9d5" fill-opacity="1" stroke="none"/>
   <path id="Path-53" d="M1336.292 521.314 L1328.049 501.532 1317.633 501.532 1309.391 521.314 C1310.245 521.529 1311.133 521.642 1312.035 521.642 1315.388 521.642 1318.436 520.15 1320.188 517.651 1320.794 516.786 1321.784 516.271 1322.841 516.271 1323.897 516.271 1324.887 516.786 1325.494 517.651 1327.246 520.15 1330.294 521.642 1333.647 521.642 1334.55 521.642 1335.438 521.529 1336.292 521.314 Z" fill="#ffcc75" fill-opacity="1" stroke="none"/>
   <path id="Path-54" d="M1308.399 531.641 L1308.399 527.73 C1309.585 527.985 1310.803 528.122 1312.036 528.122 1314.728 528.122 1317.314 527.505 1319.602 526.377 L1319.602 531.642 C1319.602 533.431 1321.052 534.881 1322.841 534.881 1324.631 534.881 1326.081 533.431 1326.081 531.642 L1326.081 526.377 C1328.368 527.505 1330.954 528.122 1333.648 528.122 1334.88 528.122 1336.098 527.985 1337.284 527.73 L1337.284 531.641 C1337.284 533.43 1338.734 534.881 1340.524 534.881 1342.314 534.881 1343.764 533.43 1343.764 531.641 L1343.764 523.047 C1343.764 523.038 1343.762 523.03 1343.762 523.022 1343.762 522.974 1343.758 522.928 1343.755 522.881 1343.752 522.813 1343.748 522.745 1343.74 522.678 1343.702 522.364 1343.628 522.076 1343.514 521.801 L1333.202 497.052 C1333.197 497.04 1333.192 497.028 1333.187 497.015 L1325.832 479.364 C1325.329 478.157 1324.149 477.371 1322.841 477.371 1321.534 477.371 1320.354 478.157 1319.851 479.364 L1312.495 497.019 C1312.491 497.029 1312.487 497.038 1312.483 497.047 L1302.169 521.802 C1302.055 522.076 1301.982 522.365 1301.946 522.658 1301.935 522.746 1301.932 522.814 1301.928 522.882 1301.926 522.928 1301.922 522.975 1301.921 523.022 1301.921 523.031 1301.92 523.039 1301.92 523.047 L1301.92 531.642 C1301.92 533.431 1303.37 534.881 1305.16 534.881 1306.949 534.881 1308.399 533.43 1308.399 531.641 Z M1325.494 517.651 C1324.888 516.786 1323.897 516.271 1322.841 516.271 1321.784 516.271 1320.795 516.786 1320.188 517.651 1318.436 520.15 1315.388 521.642 1312.035 521.642 1311.133 521.642 1310.244 521.529 1309.391 521.314 L1317.633 501.532 1328.049 501.532 1336.292 521.314 C1335.438 521.529 1334.55 521.642 1333.648 521.642 1330.294 521.642 1327.246 520.15 1325.494 517.651 Z M1320.333 495.052 L1322.841 489.033 1325.349 495.052 Z" fill="#082947" fill-opacity="1" stroke="none"/>
   <path id="Path-55" d="M1292.2 547.84 L1353.482 547.84 C1355.272 547.84 1356.722 546.389 1356.722 544.6 L1356.722 467.651 C1356.722 465.862 1355.272 464.411 1353.482 464.411 L1292.2 464.411 C1290.411 464.411 1288.961 465.862 1288.961 467.651 L1288.961 544.6 C1288.961 546.389 1290.411 547.84 1292.2 547.84 Z M1295.44 470.891 L1350.243 470.891 1350.243 541.36 1295.44 541.36 Z" fill="#082947" fill-opacity="1" stroke="none"/>
  </g>
  <g id="key-list-seg-1">
   <path id="Path-56" d="M1725.589 570.952 L1725.589 587.651 1742.287 570.952 Z" fill="#f7ba00" fill-opacity="1" stroke="none"/>
   <path id="Path-57" d="M1721.294 568.805 C1721.294 567.619 1722.255 566.658 1723.442 566.658 L1745.342 566.658 1745.342 473.33 1685.908 473.33 1685.908 488.36 C1685.908 492.701 1682.376 496.233 1678.035 496.233 1673.695 496.233 1670.163 492.701 1670.163 488.36 L1670.163 479.771 C1670.163 478.585 1671.124 477.624 1672.31 477.624 1673.496 477.624 1674.457 478.585 1674.457 479.771 L1674.457 488.36 C1674.457 490.333 1676.062 491.938 1678.035 491.938 1680.009 491.938 1681.614 490.333 1681.614 488.36 L1681.614 473.33 1657.381 473.33 1657.381 590.706 1721.294 590.706 Z M1672.411 503.533 L1730.312 503.533 C1731.498 503.533 1732.459 504.494 1732.459 505.68 1732.459 506.866 1731.498 507.827 1730.312 507.827 L1672.411 507.827 C1671.225 507.827 1670.264 506.866 1670.264 505.68 1670.264 504.494 1671.225 503.533 1672.411 503.533 Z M1672.411 516.415 L1730.312 516.415 C1731.498 516.415 1732.459 517.377 1732.459 518.563 1732.459 519.749 1731.498 520.71 1730.312 520.71 L1672.411 520.71 C1671.225 520.71 1670.264 519.749 1670.264 518.563 1670.264 517.377 1671.225 516.415 1672.411 516.415 Z M1672.411 529.298 L1730.312 529.298 C1731.498 529.298 1732.459 530.259 1732.459 531.445 1732.459 532.631 1731.498 533.592 1730.312 533.592 L1672.411 533.592 C1671.225 533.592 1670.264 532.631 1670.264 531.445 1670.264 530.259 1671.225 529.298 1672.411 529.298 Z M1672.411 542.181 L1730.312 542.181 C1731.498 542.181 1732.459 543.142 1732.459 544.328 1732.459 545.514 1731.498 546.475 1730.312 546.475 L1672.411 546.475 C1671.225 546.475 1670.264 545.514 1670.264 544.328 1670.264 543.142 1671.225 542.181 1672.411 542.181 Z M1670.264 557.211 C1670.264 556.025 1671.225 555.064 1672.411 555.064 L1730.312 555.064 C1731.498 555.064 1732.459 556.025 1732.459 557.211 1732.459 558.397 1731.498 559.358 1730.312 559.358 L1672.411 559.358 C1671.225 559.358 1670.264 558.397 1670.264 557.211 Z" fill="#ff634d" fill-opacity="1" stroke="none"/>
   <path id="Path-58" d="M1749.636 568.805 C1749.636 568.786 1749.636 471.183 1749.636 471.183 1749.636 469.997 1748.675 469.036 1747.489 469.036 L1685.37 469.036 C1683.838 464.068 1679.205 460.447 1673.741 460.447 1668.365 460.447 1663.661 464.03 1662.114 469.036 L1655.234 469.036 C1654.048 469.036 1653.087 469.997 1653.087 471.183 L1653.087 592.853 C1653.087 594.039 1654.048 595 1655.234 595 L1723.423 595 C1724.117 595 1724.719 594.687 1725.113 594.2 L1726.46 592.853 1748.836 570.477 C1749.323 570.083 1749.636 569.481 1749.636 568.805 Z M1657.381 473.33 L1681.614 473.33 1681.614 488.36 C1681.614 490.333 1680.009 491.938 1678.035 491.938 1676.062 491.938 1674.457 490.333 1674.457 488.36 L1674.457 479.771 C1674.457 478.585 1673.496 477.624 1672.31 477.624 1671.124 477.624 1670.163 478.585 1670.163 479.771 L1670.163 488.36 C1670.163 492.701 1673.694 496.233 1678.035 496.233 1682.376 496.233 1685.908 492.701 1685.908 488.36 L1685.908 473.33 1745.342 473.33 1745.342 566.658 1723.442 566.658 C1722.255 566.658 1721.294 567.619 1721.294 568.805 L1721.294 590.706 1657.381 590.706 Z M1725.589 570.952 L1742.287 570.952 1725.589 587.651 Z M1673.741 464.742 C1676.794 464.742 1679.444 466.489 1680.75 469.036 L1666.732 469.036 C1668.05 466.474 1670.733 464.742 1673.741 464.742 Z" fill="#082947" fill-opacity="1" stroke="none"/>
   <path id="Path-59" d="M1730.312 559.358 C1731.498 559.358 1732.459 558.397 1732.459 557.211 1732.459 556.025 1731.498 555.064 1730.312 555.064 L1672.411 555.064 C1671.225 555.064 1670.264 556.025 1670.264 557.211 1670.264 558.397 1671.225 559.358 1672.411 559.358 Z" fill="#082947" fill-opacity="1" stroke="none"/>
   <path id="Path-60" d="M1672.411 546.475 L1730.312 546.475 C1731.498 546.475 1732.459 545.514 1732.459 544.328 1732.459 543.142 1731.498 542.181 1730.312 542.181 L1672.411 542.181 C1671.225 542.181 1670.264 543.142 1670.264 544.328 1670.264 545.514 1671.225 546.475 1672.411 546.475 Z" fill="#082947" fill-opacity="1" stroke="none"/>
   <path id="Path-61" d="M1672.411 533.592 L1730.312 533.592 C1731.498 533.592 1732.459 532.631 1732.459 531.445 1732.459 530.259 1731.498 529.298 1730.312 529.298 L1672.411 529.298 C1671.225 529.298 1670.264 530.259 1670.264 531.445 1670.264 532.631 1671.225 533.592 1672.411 533.592 Z" fill="#082947" fill-opacity="1" stroke="none"/>
   <path id="Path-62" d="M1672.411 520.71 L1730.312 520.71 C1731.498 520.71 1732.459 519.749 1732.459 518.563 1732.459 517.377 1731.498 516.415 1730.312 516.415 L1672.411 516.415 C1671.225 516.415 1670.264 517.377 1670.264 518.563 1670.264 519.749 1671.225 520.71 1672.411 520.71 Z" fill="#082947" fill-opacity="1" stroke="none"/>
   <path id="Path-63" d="M1672.411 507.827 L1730.312 507.827 C1731.498 507.827 1732.459 506.866 1732.459 505.68 1732.459 504.494 1731.498 503.533 1730.312 503.533 L1672.411 503.533 C1671.225 503.533 1670.264 504.494 1670.264 505.68 1670.264 506.866 1671.225 507.827 1672.411 507.827 Z" fill="#082947" fill-opacity="1" stroke="none"/>
  </g>
  <defs>
   <text id="string-3" transform="matrix(1.0 0.0 0.0 1.0 1169.96540105886 386.22752814154)" x="16.3127392843882" font-family="HoeflerText-Regular, Hoefler Text" font-size="32.917" text-decoration="none" y="24.0" fill="#000000">Mikes PC</text>
  </defs>
  <use id="Mikes-PC" xlink:href="#string-3"/>
  <defs>
   <text id="string-4" transform="matrix(1.0 0.0 0.0 1.0 1393.26728636982 495.41024926399996)">
    <tspan x="33.781611182654075" font-size="32.917" font-family="HoeflerText-Regular, Hoefler Text" text-decoration="none" fill="#000000" y="24.0">segment of </tspan>
    <tspan x="17.915663863814572" font-size="32.917" font-family="HoeflerText-Regular, Hoefler Text" text-decoration="none" fill="#000000" y="79.99999904632568">Bobs key-list</tspan>
   </text>
  </defs>
  <use id="segment-of-keylist-copy-1" xlink:href="#string-4"/>
 </g>
 <g id="alices-pc">
  <g id="group-3">
   <path id="Path-64" d="M1256.564 285.864 L1288.961 285.864 1288.961 271.003 C1288.961 269.214 1290.411 267.763 1292.2 267.763 L1292.2 261.284 1256.564 261.284 Z" fill="#f2ebd9" fill-opacity="1" stroke="none"/>
   <path id="Path-65" d="M1367.521 233.118 L1178.004 233.118 1178.004 245.086 C1178.004 250.445 1182.364 254.805 1187.723 254.805 L1357.802 254.805 C1363.161 254.805 1367.521 250.445 1367.521 245.086 Z" fill="#98d9d5" fill-opacity="1" stroke="none"/>
   <path id="Path-66" d="M1305.159 202.881 C1303.37 202.881 1301.92 201.43 1301.92 199.641 L1301.92 191.047 C1301.92 191.038 1301.921 191.03 1301.921 191.022 1301.921 190.974 1301.925 190.928 1301.928 190.881 1301.931 190.813 1301.935 190.745 1301.943 190.678 1301.981 190.364 1302.055 190.076 1302.169 189.801 L1312.483 165.046 C1312.487 165.037 1312.49 165.028 1312.494 165.019 L1319.85 147.364 C1320.353 146.157 1321.533 145.37 1322.841 145.37 1324.148 145.37 1325.329 146.156 1325.831 147.364 L1333.186 165.015 C1333.192 165.027 1333.197 165.039 1333.201 165.051 L1343.514 189.801 C1343.628 190.075 1343.701 190.364 1343.737 190.657 1343.748 190.745 1343.752 190.813 1343.755 190.881 1343.758 190.927 1343.761 190.974 1343.762 191.021 1343.762 191.03 1343.763 191.038 1343.763 191.047 L1343.763 199.641 C1343.763 201.43 1342.313 202.88 1340.524 202.88 L1340.524 209.36 1350.243 209.36 1350.243 138.891 1295.44 138.891 1295.44 209.36 1305.159 209.36 Z" fill="#f2ebd9" fill-opacity="1" stroke="none"/>
   <path id="Path-67" d="M1178.004 226.639 L1367.521 226.639 1367.521 131.331 C1367.521 125.972 1363.161 121.612 1357.802 121.612 L1187.723 121.612 C1182.364 121.612 1178.004 125.972 1178.004 131.331 Z M1288.961 135.651 C1288.961 133.862 1290.411 132.411 1292.2 132.411 L1353.482 132.411 C1355.272 132.411 1356.722 133.862 1356.722 135.651 L1356.722 212.6 C1356.722 214.389 1355.272 215.84 1353.482 215.84 L1292.2 215.84 C1290.411 215.84 1288.961 214.389 1288.961 212.6 Z M1192.042 132.411 L1275.194 132.411 C1276.984 132.411 1278.434 133.862 1278.434 135.651 1278.434 137.44 1276.984 138.891 1275.194 138.891 L1192.042 138.891 C1190.253 138.891 1188.803 137.44 1188.803 135.651 1188.803 133.862 1190.253 132.411 1192.042 132.411 Z M1192.042 147.801 L1275.194 147.801 C1276.984 147.801 1278.434 149.252 1278.434 151.041 1278.434 152.83 1276.984 154.281 1275.194 154.281 L1192.042 154.281 C1190.253 154.281 1188.803 152.83 1188.803 151.041 1188.803 149.252 1190.253 147.801 1192.042 147.801 Z M1192.042 163.191 L1233.618 163.191 C1235.408 163.191 1236.858 164.641 1236.858 166.431 1236.858 168.22 1235.408 169.67 1233.618 169.67 L1192.042 169.67 C1190.253 169.67 1188.803 168.22 1188.803 166.431 1188.803 164.641 1190.253 163.191 1192.042 163.191 Z M1192.042 178.581 L1275.194 178.581 C1276.984 178.581 1278.434 180.031 1278.434 181.82 1278.434 183.61 1276.984 185.06 1275.194 185.06 L1192.042 185.06 C1190.253 185.06 1188.803 183.61 1188.803 181.82 1188.803 180.031 1190.253 178.581 1192.042 178.581 Z M1192.042 193.971 L1275.194 193.971 C1276.984 193.971 1278.434 195.421 1278.434 197.21 1278.434 198.999 1276.984 200.45 1275.194 200.45 L1192.042 200.45 C1190.253 200.45 1188.803 198.999 1188.803 197.21 1188.803 195.421 1190.253 193.971 1192.042 193.971 Z M1192.042 209.36 L1233.618 209.36 C1235.408 209.36 1236.858 210.811 1236.858 212.6 1236.858 214.389 1235.408 215.84 1233.618 215.84 L1192.042 215.84 C1190.253 215.84 1188.803 214.389 1188.803 212.6 1188.803 210.811 1190.253 209.36 1192.042 209.36 Z" fill="#ffffff" fill-opacity="1" stroke="none"/>
   <path id="Path-68" d="M1357.802 115.133 L1187.723 115.133 C1178.791 115.133 1171.525 122.399 1171.525 131.331 L1171.525 245.086 C1171.525 254.018 1178.791 261.284 1187.723 261.284 L1250.085 261.284 1250.085 285.864 1236.046 285.864 C1234.256 285.864 1232.806 287.315 1232.806 289.104 1232.806 290.893 1234.256 292.344 1236.046 292.344 L1309.479 292.344 C1311.268 292.344 1312.718 290.893 1312.718 289.104 1312.718 287.315 1311.268 285.864 1309.479 285.864 L1295.44 285.864 1295.44 271.003 C1295.44 269.214 1293.99 267.763 1292.2 267.763 1290.411 267.763 1288.961 269.214 1288.961 271.003 L1288.961 285.864 1256.564 285.864 1256.564 261.284 1357.802 261.284 C1366.734 261.284 1374 254.018 1374 245.086 L1374 131.331 C1374 122.399 1366.734 115.133 1357.802 115.133 Z M1357.802 254.805 L1187.723 254.805 C1182.364 254.805 1178.004 250.445 1178.004 245.086 L1178.004 233.117 1367.521 233.117 1367.521 245.086 C1367.521 250.445 1363.161 254.805 1357.802 254.805 Z M1187.723 121.612 L1357.802 121.612 C1363.161 121.612 1367.521 125.972 1367.521 131.331 L1367.521 226.639 1178.004 226.639 1178.004 131.331 C1178.004 125.972 1182.364 121.612 1187.723 121.612 Z" fill="#082947" fill-opacity="1" stroke="none"/>
   <path id="Path-69" d="M1192.042 138.891 L1275.194 138.891 C1276.984 138.891 1278.434 137.44 1278.434 135.651 1278.434 133.862 1276.984 132.411 1275.194 132.411 L1192.042 132.411 C1190.253 132.411 1188.803 133.862 1188.803 135.651 1188.803 137.44 1190.253 138.891 1192.042 138.891 Z" fill="#082947" fill-opacity="1" stroke="none"/>
   <path id="Path-70" d="M1192.042 154.281 L1275.194 154.281 C1276.984 154.281 1278.434 152.83 1278.434 151.041 1278.434 149.252 1276.984 147.801 1275.194 147.801 L1192.042 147.801 C1190.253 147.801 1188.803 149.252 1188.803 151.041 1188.803 152.83 1190.253 154.281 1192.042 154.281 Z" fill="#082947" fill-opacity="1" stroke="none"/>
   <path id="Path-71" d="M1192.042 169.67 L1233.618 169.67 C1235.408 169.67 1236.858 168.22 1236.858 166.431 1236.858 164.641 1235.408 163.191 1233.618 163.191 L1192.042 163.191 C1190.253 163.191 1188.803 164.641 1188.803 166.431 1188.803 168.22 1190.253 169.67 1192.042 169.67 Z" fill="#082947" fill-opacity="1" stroke="none"/>
   <path id="Path-72" d="M1192.042 185.06 L1275.194 185.06 C1276.984 185.06 1278.434 183.61 1278.434 181.82 1278.434 180.031 1276.984 178.581 1275.194 178.581 L1192.042 178.581 C1190.253 178.581 1188.803 180.031 1188.803 181.82 1188.803 183.61 1190.253 185.06 1192.042 185.06 Z" fill="#082947" fill-opacity="1" stroke="none"/>
   <path id="Path-73" d="M1192.042 200.45 L1275.194 200.45 C1276.984 200.45 1278.434 198.999 1278.434 197.21 1278.434 195.421 1276.984 193.971 1275.194 193.971 L1192.042 193.971 C1190.253 193.971 1188.803 195.421 1188.803 197.21 1188.803 198.999 1190.253 200.45 1192.042 200.45 Z" fill="#082947" fill-opacity="1" stroke="none"/>
   <path id="Path-74" d="M1192.042 215.84 L1233.618 215.84 C1235.408 215.84 1236.858 214.389 1236.858 212.6 1236.858 210.811 1235.408 209.36 1233.618 209.36 L1192.042 209.36 C1190.253 209.36 1188.803 210.811 1188.803 212.6 1188.803 214.389 1190.253 215.84 1192.042 215.84 Z" fill="#082947" fill-opacity="1" stroke="none"/>
   <path id="Path-75" d="M1337.284 199.641 L1337.284 195.73 C1336.098 195.985 1334.88 196.122 1333.647 196.122 1330.954 196.122 1328.368 195.505 1326.081 194.377 L1326.081 199.642 C1326.081 201.431 1324.63 202.881 1322.841 202.881 1321.051 202.881 1319.601 201.431 1319.601 199.642 L1319.601 194.377 C1317.314 195.505 1314.728 196.122 1312.035 196.122 1310.803 196.122 1309.585 195.985 1308.398 195.73 L1308.398 199.641 C1308.398 201.43 1306.948 202.881 1305.159 202.881 L1305.159 209.36 1340.523 209.36 1340.523 202.881 C1338.734 202.881 1337.284 201.43 1337.284 199.641 Z" fill="#98d9d5" fill-opacity="1" stroke="none"/>
   <path id="Path-76" d="M1320.333 163.052 L1325.349 163.052 1322.841 157.033 Z" fill="#98d9d5" fill-opacity="1" stroke="none"/>
   <path id="Path-77" d="M1336.292 189.314 L1328.049 169.532 1317.633 169.532 1309.391 189.314 C1310.245 189.529 1311.133 189.642 1312.035 189.642 1315.388 189.642 1318.436 188.15 1320.188 185.651 1320.794 184.786 1321.784 184.271 1322.841 184.271 1323.897 184.271 1324.887 184.786 1325.494 185.651 1327.246 188.15 1330.294 189.642 1333.647 189.642 1334.55 189.642 1335.438 189.529 1336.292 189.314 Z" fill="#ffcc75" fill-opacity="1" stroke="none"/>
   <path id="Path-78" d="M1308.399 199.641 L1308.399 195.73 C1309.585 195.985 1310.803 196.122 1312.036 196.122 1314.728 196.122 1317.314 195.505 1319.602 194.377 L1319.602 199.642 C1319.602 201.431 1321.052 202.881 1322.841 202.881 1324.631 202.881 1326.081 201.431 1326.081 199.642 L1326.081 194.377 C1328.368 195.505 1330.954 196.122 1333.648 196.122 1334.88 196.122 1336.098 195.985 1337.284 195.73 L1337.284 199.641 C1337.284 201.43 1338.734 202.881 1340.524 202.881 1342.314 202.881 1343.764 201.43 1343.764 199.641 L1343.764 191.047 C1343.764 191.038 1343.762 191.03 1343.762 191.022 1343.762 190.974 1343.758 190.928 1343.755 190.881 1343.752 190.813 1343.748 190.745 1343.74 190.678 1343.702 190.364 1343.628 190.076 1343.514 189.801 L1333.202 165.052 C1333.197 165.04 1333.192 165.028 1333.187 165.015 L1325.832 147.364 C1325.329 146.157 1324.149 145.371 1322.841 145.371 1321.534 145.371 1320.354 146.157 1319.851 147.364 L1312.495 165.019 C1312.491 165.029 1312.487 165.038 1312.483 165.047 L1302.169 189.802 C1302.055 190.076 1301.982 190.365 1301.946 190.658 1301.935 190.746 1301.932 190.814 1301.928 190.882 1301.926 190.928 1301.922 190.975 1301.921 191.022 1301.921 191.031 1301.92 191.039 1301.92 191.047 L1301.92 199.642 C1301.92 201.431 1303.37 202.881 1305.16 202.881 1306.949 202.881 1308.399 201.43 1308.399 199.641 Z M1325.494 185.651 C1324.888 184.786 1323.897 184.271 1322.841 184.271 1321.784 184.271 1320.795 184.786 1320.188 185.651 1318.436 188.15 1315.388 189.642 1312.035 189.642 1311.133 189.642 1310.244 189.529 1309.391 189.314 L1317.633 169.532 1328.049 169.532 1336.292 189.314 C1335.438 189.529 1334.55 189.642 1333.648 189.642 1330.294 189.642 1327.246 188.15 1325.494 185.651 Z M1320.333 163.052 L1322.841 157.033 1325.349 163.052 Z" fill="#082947" fill-opacity="1" stroke="none"/>
   <path id="Path-79" d="M1292.2 215.84 L1353.482 215.84 C1355.272 215.84 1356.722 214.389 1356.722 212.6 L1356.722 135.651 C1356.722 133.862 1355.272 132.411 1353.482 132.411 L1292.2 132.411 C1290.411 132.411 1288.961 133.862 1288.961 135.651 L1288.961 212.6 C1288.961 214.389 1290.411 215.84 1292.2 215.84 Z M1295.44 138.891 L1350.243 138.891 1350.243 209.36 1295.44 209.36 Z" fill="#082947" fill-opacity="1" stroke="none"/>
  </g>
  <g id="key-list-seg-2">
   <path id="Path-80" d="M1725.589 238.952 L1725.589 255.651 1742.287 238.952 Z" fill="#98d9d5" fill-opacity="1" stroke="none"/>
   <path id="Path-81" d="M1721.294 236.805 C1721.294 235.619 1722.255 234.658 1723.442 234.658 L1745.342 234.658 1745.342 141.33 1685.908 141.33 1685.908 156.36 C1685.908 160.701 1682.376 164.233 1678.035 164.233 1673.695 164.233 1670.163 160.701 1670.163 156.36 L1670.163 147.771 C1670.163 146.585 1671.124 145.624 1672.31 145.624 1673.496 145.624 1674.457 146.585 1674.457 147.771 L1674.457 156.36 C1674.457 158.333 1676.062 159.938 1678.035 159.938 1680.009 159.938 1681.614 158.333 1681.614 156.36 L1681.614 141.33 1657.381 141.33 1657.381 258.706 1721.294 258.706 Z M1672.411 171.533 L1730.312 171.533 C1731.498 171.533 1732.459 172.494 1732.459 173.68 1732.459 174.866 1731.498 175.827 1730.312 175.827 L1672.411 175.827 C1671.225 175.827 1670.264 174.866 1670.264 173.68 1670.264 172.494 1671.225 171.533 1672.411 171.533 Z M1672.411 184.415 L1730.312 184.415 C1731.498 184.415 1732.459 185.377 1732.459 186.563 1732.459 187.749 1731.498 188.71 1730.312 188.71 L1672.411 188.71 C1671.225 188.71 1670.264 187.749 1670.264 186.563 1670.264 185.377 1671.225 184.415 1672.411 184.415 Z M1672.411 197.298 L1730.312 197.298 C1731.498 197.298 1732.459 198.259 1732.459 199.445 1732.459 200.631 1731.498 201.592 1730.312 201.592 L1672.411 201.592 C1671.225 201.592 1670.264 200.631 1670.264 199.445 1670.264 198.259 1671.225 197.298 1672.411 197.298 Z M1672.411 210.181 L1730.312 210.181 C1731.498 210.181 1732.459 211.142 1732.459 212.328 1732.459 213.514 1731.498 214.475 1730.312 214.475 L1672.411 214.475 C1671.225 214.475 1670.264 213.514 1670.264 212.328 1670.264 211.142 1671.225 210.181 1672.411 210.181 Z M1670.264 225.211 C1670.264 224.025 1671.225 223.064 1672.411 223.064 L1730.312 223.064 C1731.498 223.064 1732.459 224.025 1732.459 225.211 1732.459 226.397 1731.498 227.358 1730.312 227.358 L1672.411 227.358 C1671.225 227.358 1670.264 226.397 1670.264 225.211 Z" fill="#ffffff" fill-opacity="1" stroke="none"/>
   <path id="Path-82" d="M1749.636 236.805 C1749.636 236.786 1749.636 139.183 1749.636 139.183 1749.636 137.997 1748.675 137.036 1747.489 137.036 L1685.37 137.036 C1683.838 132.068 1679.205 128.447 1673.741 128.447 1668.365 128.447 1663.661 132.03 1662.114 137.036 L1655.234 137.036 C1654.048 137.036 1653.087 137.997 1653.087 139.183 L1653.087 260.853 C1653.087 262.039 1654.048 263 1655.234 263 L1723.423 263 C1724.117 263 1724.719 262.687 1725.113 262.2 L1726.46 260.853 1748.836 238.477 C1749.323 238.083 1749.636 237.481 1749.636 236.805 Z M1657.381 141.33 L1681.614 141.33 1681.614 156.36 C1681.614 158.333 1680.009 159.938 1678.035 159.938 1676.062 159.938 1674.457 158.333 1674.457 156.36 L1674.457 147.771 C1674.457 146.585 1673.496 145.624 1672.31 145.624 1671.124 145.624 1670.163 146.585 1670.163 147.771 L1670.163 156.36 C1670.163 160.701 1673.694 164.233 1678.035 164.233 1682.376 164.233 1685.908 160.701 1685.908 156.36 L1685.908 141.33 1745.342 141.33 1745.342 234.658 1723.442 234.658 C1722.255 234.658 1721.294 235.619 1721.294 236.805 L1721.294 258.706 1657.381 258.706 Z M1725.589 238.952 L1742.287 238.952 1725.589 255.651 Z M1673.741 132.742 C1676.794 132.742 1679.444 134.489 1680.75 137.036 L1666.732 137.036 C1668.05 134.474 1670.733 132.742 1673.741 132.742 Z" fill="#082947" fill-opacity="1" stroke="none"/>
   <path id="Path-83" d="M1730.312 227.358 C1731.498 227.358 1732.459 226.397 1732.459 225.211 1732.459 224.025 1731.498 223.064 1730.312 223.064 L1672.411 223.064 C1671.225 223.064 1670.264 224.025 1670.264 225.211 1670.264 226.397 1671.225 227.358 1672.411 227.358 Z" fill="#082947" fill-opacity="1" stroke="none"/>
   <path id="Path-84" d="M1672.411 214.475 L1730.312 214.475 C1731.498 214.475 1732.459 213.514 1732.459 212.328 1732.459 211.142 1731.498 210.181 1730.312 210.181 L1672.411 210.181 C1671.225 210.181 1670.264 211.142 1670.264 212.328 1670.264 213.514 1671.225 214.475 1672.411 214.475 Z" fill="#082947" fill-opacity="1" stroke="none"/>
   <path id="Path-85" d="M1672.411 201.592 L1730.312 201.592 C1731.498 201.592 1732.459 200.631 1732.459 199.445 1732.459 198.259 1731.498 197.298 1730.312 197.298 L1672.411 197.298 C1671.225 197.298 1670.264 198.259 1670.264 199.445 1670.264 200.631 1671.225 201.592 1672.411 201.592 Z" fill="#082947" fill-opacity="1" stroke="none"/>
   <path id="Path-86" d="M1672.411 188.71 L1730.312 188.71 C1731.498 188.71 1732.459 187.749 1732.459 186.563 1732.459 185.377 1731.498 184.415 1730.312 184.415 L1672.411 184.415 C1671.225 184.415 1670.264 185.377 1670.264 186.563 1670.264 187.749 1671.225 188.71 1672.411 188.71 Z" fill="#082947" fill-opacity="1" stroke="none"/>
   <path id="Path-87" d="M1672.411 175.827 L1730.312 175.827 C1731.498 175.827 1732.459 174.866 1732.459 173.68 1732.459 172.494 1731.498 171.533 1730.312 171.533 L1672.411 171.533 C1671.225 171.533 1670.264 172.494 1670.264 173.68 1670.264 174.866 1671.225 175.827 1672.411 175.827 Z" fill="#082947" fill-opacity="1" stroke="none"/>
  </g>
  <defs>
   <text id="string-5" transform="matrix(1.0 0.0 0.0 1.0 1169.96540105886 54.227528141540006)" text-decoration="none" y="24.0" fill="#000000" font-family="HoeflerText-Regular, Hoefler Text" font-size="32.917" x="15.308773738279058">Alices PC</text>
  </defs>
  <use id="Alices-PC" xlink:href="#string-5"/>
  <defs>
   <text id="string-6" transform="matrix(1.0 0.0 0.0 1.0 1393.26728636982 163.41024926399996)">
    <tspan fill="#000000" text-decoration="none" y="24.0" font-family="HoeflerText-Regular, Hoefler Text" x="33.781611182654075" font-size="32.917">segment of </tspan>
    <tspan fill="#000000" text-decoration="none" x="17.915663863814572" y="79.99999904632568" font-family="HoeflerText-Regular, Hoefler Text" font-size="32.917">Bobs key-list</tspan>
   </text>
  </defs>
  <use id="segment-of-keylist-copy-2" xlink:href="#string-6"/>
 </g>
 <g id="key-list-icon">
  <g id="key-list">
   <g id="group-4">
    <path id="Path-88" d="M955.564 458.441 C955.564 456.846 956.857 455.553 958.452 455.553 960.047 455.553 961.34 456.846 961.34 458.441 L967.117 458.441 C967.117 456.846 968.41 455.553 970.005 455.553 971.6 455.553 972.894 456.846 972.894 458.441 L972.894 495.989 978.67 495.989 978.67 449.777 958.452 449.777 C956.857 449.777 955.564 448.484 955.564 446.888 L949.787 446.888 949.787 458.441 Z" fill="#185f8d" fill-opacity="1" stroke="none"/>
    <path id="Path-89" d="M949.787 619.223 L978.67 619.223 978.67 595.146 C976.99 596.41 975.027 597.317 972.894 597.752 L972.894 610.558 C972.894 612.154 971.6 613.447 970.005 613.447 968.41 613.447 967.117 612.154 967.117 610.558 L961.34 610.558 C961.34 612.154 960.047 613.447 958.452 613.447 956.857 613.447 955.564 612.154 955.564 610.558 L949.787 610.558 Z" fill="#185f8d" fill-opacity="1" stroke="none"/>
    <path id="Path-90" d="M972.894 550.195 C975.027 550.63 976.99 551.536 978.67 552.801 L978.67 544.128 972.894 544.128 Z" fill="#185f8d" fill-opacity="1" stroke="none"/>
    <path id="Path-91" d="M961.34 598.043 L967.117 598.043 967.117 610.558 961.34 610.558 Z" fill="#ffcc75" fill-opacity="1" stroke="none"/>
    <path id="Path-92" d="M961.34 549.904 L967.117 549.904 967.117 541.239 C967.117 539.644 968.41 538.351 970.005 538.351 L981.559 538.351 C986.337 538.351 990.223 534.464 990.223 529.686 L990.223 510.431 C990.223 505.653 986.337 501.766 981.559 501.766 L970.005 501.766 C968.41 501.766 967.117 500.473 967.117 498.878 L967.117 458.441 961.34 458.441 Z" fill="#ffcc75" fill-opacity="1" stroke="none"/>
    <path id="Path-93" d="M984.447 496.28 L984.447 446.888 C984.447 445.293 983.154 444 981.559 444 L958.452 444 C956.857 444 955.564 445.293 955.564 446.888 955.564 448.484 956.857 449.777 958.452 449.777 L978.67 449.777 978.67 495.989 972.894 495.989 972.894 458.441 C972.894 456.846 971.6 455.553 970.005 455.553 968.41 455.553 967.117 456.846 967.117 458.441 L967.117 498.878 C967.117 500.473 968.41 501.766 970.005 501.766 L981.559 501.766 C986.337 501.766 990.223 505.653 990.223 510.431 L990.223 529.686 C990.223 534.464 986.337 538.351 981.559 538.351 L970.005 538.351 C968.41 538.351 967.117 539.644 967.117 541.239 L967.117 549.904 961.34 549.904 961.34 458.441 C961.34 456.846 960.047 455.553 958.452 455.553 956.857 455.553 955.564 456.846 955.564 458.441 L955.564 552.793 C955.564 554.388 956.857 555.681 958.452 555.681 L970.005 555.681 C974.783 555.681 978.67 559.568 978.67 564.346 L978.67 583.601 C978.67 588.379 974.783 592.266 970.005 592.266 L958.452 592.266 C956.857 592.266 955.564 593.559 955.564 595.154 L955.564 610.558 C955.564 612.154 956.857 613.447 958.452 613.447 960.047 613.447 961.34 612.154 961.34 610.558 L961.34 598.043 967.117 598.043 967.117 610.558 C967.117 612.154 968.41 613.447 970.005 613.447 971.6 613.447 972.894 612.154 972.894 610.558 L972.894 597.752 C975.027 597.317 976.99 596.41 978.67 595.146 L978.67 619.223 949.787 619.223 949.787 446.888 C949.787 445.293 948.494 444 946.899 444 L833.293 444 C831.697 444 830.404 445.293 830.404 446.888 L830.404 456.516 823.665 456.516 C818.887 456.516 815 460.403 815 465.181 815 469.958 818.887 473.846 823.665 473.846 L830.404 473.846 830.404 502.729 823.665 502.729 C818.887 502.729 815 506.616 815 511.394 815 516.171 818.887 520.059 823.665 520.059 L830.404 520.059 830.404 548.941 823.665 548.941 C818.887 548.941 815 552.829 815 557.606 815 562.384 818.887 566.271 823.665 566.271 L830.404 566.271 830.404 595.154 823.665 595.154 C818.887 595.154 815 599.042 815 603.819 815 608.597 818.887 612.484 823.665 612.484 L830.404 612.484 830.404 622.112 C830.404 623.707 831.697 625 833.293 625 L981.559 625 C983.154 625 984.447 623.707 984.447 622.112 L984.447 543.837 C991.031 542.495 996 536.66 996 529.686 L996 510.431 C996 503.457 991.031 497.622 984.447 496.28 Z M978.67 552.801 C976.99 551.536 975.027 550.63 972.894 550.195 L972.894 544.128 978.67 544.128 Z M820.777 603.819 C820.777 602.226 822.072 600.931 823.665 600.931 L842.92 600.931 C844.513 600.931 845.809 602.226 845.809 603.819 845.809 605.412 844.513 606.707 842.92 606.707 L823.665 606.707 C822.072 606.707 820.777 605.412 820.777 603.819 Z M836.181 612.484 L842.92 612.484 C847.698 612.484 851.585 608.597 851.585 603.819 851.585 599.042 847.698 595.154 842.92 595.154 L836.181 595.154 836.181 566.271 842.92 566.271 C847.698 566.271 851.585 562.384 851.585 557.606 851.585 552.829 847.698 548.941 842.92 548.941 L836.181 548.941 836.181 520.059 842.92 520.059 C847.698 520.059 851.585 516.171 851.585 511.394 851.585 506.616 847.698 502.729 842.92 502.729 L836.181 502.729 836.181 473.846 842.92 473.846 C847.698 473.846 851.585 469.958 851.585 465.181 851.585 460.403 847.698 456.516 842.92 456.516 L836.181 456.516 836.181 449.777 944.011 449.777 944.011 619.223 836.181 619.223 Z M820.777 557.606 C820.777 556.014 822.072 554.718 823.665 554.718 L842.92 554.718 C844.513 554.718 845.809 556.014 845.809 557.606 845.809 559.199 844.513 560.495 842.92 560.495 L823.665 560.495 C822.072 560.495 820.777 559.199 820.777 557.606 Z M820.777 511.394 C820.777 509.801 822.072 508.505 823.665 508.505 L842.92 508.505 C844.513 508.505 845.809 509.801 845.809 511.394 845.809 512.986 844.513 514.282 842.92 514.282 L823.665 514.282 C822.072 514.282 820.777 512.986 820.777 511.394 Z M820.777 465.181 C820.777 463.588 822.072 462.293 823.665 462.293 L842.92 462.293 C844.513 462.293 845.809 463.588 845.809 465.181 845.809 466.774 844.513 468.069 842.92 468.069 L823.665 468.069 C822.072 468.069 820.777 466.774 820.777 465.181 Z" fill="#082947" fill-opacity="1" stroke="none"/>
    <path id="Path-94" d="M949.787 610.558 L955.564 610.558 955.564 595.154 C955.564 593.559 956.857 592.266 958.452 592.266 L970.005 592.266 C974.783 592.266 978.67 588.379 978.67 583.601 L978.67 564.346 C978.67 559.568 974.783 555.681 970.005 555.681 L958.452 555.681 C956.857 555.681 955.564 554.388 955.564 552.793 L955.564 458.441 949.787 458.441 Z" fill="#f2ebd9" fill-opacity="1" stroke="none"/>
    <path id="Path-95" d="M944.011 449.777 L836.181 449.777 836.181 456.516 842.92 456.516 C847.698 456.516 851.585 460.403 851.585 465.181 851.585 469.958 847.698 473.846 842.92 473.846 L836.181 473.846 836.181 502.729 842.92 502.729 C847.698 502.729 851.585 506.616 851.585 511.394 851.585 516.171 847.698 520.059 842.92 520.059 L836.181 520.059 836.181 548.941 842.92 548.941 C847.698 548.941 851.585 552.829 851.585 557.606 851.585 562.384 847.698 566.271 842.92 566.271 L836.181 566.271 836.181 595.154 842.92 595.154 C847.698 595.154 851.585 599.042 851.585 603.819 851.585 608.597 847.698 612.484 842.92 612.484 L836.181 612.484 836.181 619.223 944.011 619.223 Z" fill="#6da8d6" fill-opacity="1" stroke="none"/>
    <path id="Path-96" d="M842.92 606.707 C844.513 606.707 845.809 605.412 845.809 603.819 845.809 602.226 844.513 600.931 842.92 600.931 L823.665 600.931 C822.072 600.931 820.777 602.226 820.777 603.819 820.777 605.412 822.072 606.707 823.665 606.707 Z" fill="#98d9d5" fill-opacity="1" stroke="none"/>
    <path id="Path-97" d="M842.92 560.495 C844.513 560.495 845.809 559.199 845.809 557.606 845.809 556.014 844.513 554.718 842.92 554.718 L823.665 554.718 C822.072 554.718 820.777 556.014 820.777 557.606 820.777 559.199 822.072 560.495 823.665 560.495 Z" fill="#98d9d5" fill-opacity="1" stroke="none"/>
    <path id="Path-98" d="M842.92 514.282 C844.513 514.282 845.809 512.986 845.809 511.394 845.809 509.801 844.513 508.505 842.92 508.505 L823.665 508.505 C822.072 508.505 820.777 509.801 820.777 511.394 820.777 512.986 822.072 514.282 823.665 514.282 Z" fill="#98d9d5" fill-opacity="1" stroke="none"/>
    <path id="Path-99" d="M842.92 468.069 C844.513 468.069 845.809 466.774 845.809 465.181 845.809 463.588 844.513 462.293 842.92 462.293 L823.665 462.293 C822.072 462.293 820.777 463.588 820.777 465.181 820.777 466.774 822.072 468.069 823.665 468.069 Z" fill="#98d9d5" fill-opacity="1" stroke="none"/>
   </g>
  </g>
  <defs>
   <text id="string-7" transform="matrix(1.0 0.0 0.0 1.0 829.0 396.0)" fill="#000000" x="14.663000000000011" y="24.0" font-family="HoeflerText-Regular, Hoefler Text" font-size="33" text-decoration="none">key list</text>
  </defs>
  <use id="key-list-1" xlink:href="#string-7"/>
 </g>
 <g id="bond-list-icon">
  <g id="group-5">
   <path id="Path-100" d="M655.015 619.333 L655.959 619.333 655.959 464.447 655.015 464.447 C653.45 464.447 652.182 463.179 652.182 461.614 L646.515 461.614 646.515 622.167 652.182 622.167 C652.182 620.602 653.45 619.333 655.015 619.333 Z" fill="#f7ba00" fill-opacity="1" stroke="none"/>
   <path id="Path-101" d="M610.6 619.333 L640.849 619.333 640.849 464.447 639.904 464.447 C638.339 464.447 637.071 463.179 637.071 461.614 L631.404 461.614 631.404 590.409 C631.404 591.326 630.991 592.121 630.347 592.64 L600.821 622.167 607.766 622.167 C607.766 620.602 609.034 619.333 610.6 619.333 Z" fill="#ff634d" fill-opacity="1" stroke="none"/>
   <path id="Path-102" d="M599.671 593.267 L599.671 615.302 621.706 593.267 Z" fill="#98d9d5" fill-opacity="1" stroke="none"/>
   <path id="Path-103" d="M594.005 590.434 C594.005 588.869 595.273 587.601 596.838 587.601 L625.738 587.601 625.738 464.447 547.31 464.447 547.31 484.28 C547.31 490.008 542.649 494.669 536.921 494.669 531.193 494.669 526.533 490.008 526.533 484.28 L526.533 472.947 C526.533 471.382 527.801 470.114 529.366 470.114 530.931 470.114 532.199 471.382 532.199 472.947 L532.199 484.28 C532.199 486.884 534.317 489.002 536.921 489.002 539.525 489.002 541.643 486.884 541.643 484.28 L541.643 464.447 509.667 464.447 509.667 619.333 594.005 619.333 Z M529.5 504.302 L605.905 504.302 C607.47 504.302 608.738 505.57 608.738 507.135 608.738 508.7 607.47 509.969 605.905 509.969 L529.5 509.969 C527.935 509.969 526.666 508.7 526.666 507.135 526.666 505.57 527.935 504.302 529.5 504.302 Z M529.5 521.302 L605.905 521.302 C607.47 521.302 608.738 522.57 608.738 524.135 608.738 525.7 607.47 526.968 605.905 526.968 L529.5 526.968 C527.935 526.968 526.666 525.7 526.666 524.135 526.666 522.57 527.935 521.302 529.5 521.302 Z M529.5 538.301 L605.905 538.301 C607.47 538.301 608.738 539.57 608.738 541.135 608.738 542.7 607.47 543.968 605.905 543.968 L529.5 543.968 C527.935 543.968 526.666 542.7 526.666 541.135 526.666 539.57 527.935 538.301 529.5 538.301 Z M529.5 555.301 L605.905 555.301 C607.47 555.301 608.738 556.569 608.738 558.134 608.738 559.7 607.47 560.968 605.905 560.968 L529.5 560.968 C527.935 560.968 526.666 559.7 526.666 558.134 526.666 556.569 527.935 555.301 529.5 555.301 Z M526.666 575.134 C526.666 573.569 527.935 572.301 529.5 572.301 L605.905 572.301 C607.47 572.301 608.738 573.569 608.738 575.134 608.738 576.699 607.47 577.967 605.905 577.967 L529.5 577.967 C527.935 577.967 526.666 576.699 526.666 575.134 Z" fill="#ffffff" fill-opacity="1" stroke="none"/>
   <path id="Path-104" d="M631.404 590.434 C631.404 590.409 631.404 461.614 631.404 461.614 631.404 460.049 630.136 458.78 628.571 458.78 L546.6 458.78 C544.579 452.225 538.464 447.447 531.255 447.447 524.161 447.447 517.954 452.175 515.912 458.78 L506.833 458.78 C505.268 458.78 504 460.049 504 461.614 L504 622.167 C504 623.732 505.268 625 506.833 625 L596.814 625 C597.73 625 598.524 624.587 599.043 623.944 L600.821 622.167 630.348 592.64 C630.991 592.121 631.404 591.326 631.404 590.434 Z M509.667 464.447 L541.643 464.447 541.643 484.28 C541.643 486.884 539.525 489.002 536.921 489.002 534.317 489.002 532.199 486.884 532.199 484.28 L532.199 472.947 C532.199 471.382 530.931 470.114 529.366 470.114 527.801 470.114 526.533 471.382 526.533 472.947 L526.533 484.28 C526.533 490.008 531.193 494.669 536.921 494.669 542.649 494.669 547.31 490.008 547.31 484.28 L547.31 464.447 625.738 464.447 625.738 587.601 596.838 587.601 C595.273 587.601 594.005 588.869 594.005 590.434 L594.005 619.333 509.667 619.333 Z M599.671 593.267 L621.706 593.267 599.671 615.302 Z M531.255 453.114 C535.283 453.114 538.781 455.42 540.503 458.78 L522.005 458.78 C523.745 455.4 527.285 453.114 531.255 453.114 Z" fill="#082947" fill-opacity="1" stroke="none"/>
   <path id="Path-105" d="M605.905 577.967 C607.47 577.967 608.738 576.699 608.738 575.134 608.738 573.569 607.47 572.301 605.905 572.301 L529.5 572.301 C527.935 572.301 526.666 573.569 526.666 575.134 526.666 576.699 527.935 577.967 529.5 577.967 Z" fill="#082947" fill-opacity="1" stroke="none"/>
   <path id="Path-106" d="M529.5 560.968 L605.905 560.968 C607.47 560.968 608.738 559.7 608.738 558.134 608.738 556.569 607.47 555.301 605.905 555.301 L529.5 555.301 C527.935 555.301 526.666 556.569 526.666 558.134 526.666 559.7 527.935 560.968 529.5 560.968 Z" fill="#082947" fill-opacity="1" stroke="none"/>
   <path id="Path-107" d="M529.5 543.968 L605.905 543.968 C607.47 543.968 608.738 542.7 608.738 541.135 608.738 539.57 607.47 538.301 605.905 538.301 L529.5 538.301 C527.935 538.301 526.666 539.57 526.666 541.135 526.666 542.7 527.935 543.968 529.5 543.968 Z" fill="#082947" fill-opacity="1" stroke="none"/>
   <path id="Path-108" d="M529.5 526.968 L605.905 526.968 C607.47 526.968 608.738 525.7 608.738 524.135 608.738 522.57 607.47 521.302 605.905 521.302 L529.5 521.302 C527.935 521.302 526.666 522.57 526.666 524.135 526.666 525.7 527.935 526.968 529.5 526.968 Z" fill="#082947" fill-opacity="1" stroke="none"/>
   <path id="Path-109" d="M529.5 509.969 L605.905 509.969 C607.47 509.969 608.738 508.7 608.738 507.135 608.738 505.57 607.47 504.302 605.905 504.302 L529.5 504.302 C527.935 504.302 526.666 505.57 526.666 507.135 526.666 508.7 527.935 509.969 529.5 509.969 Z" fill="#082947" fill-opacity="1" stroke="none"/>
   <path id="Path-110" d="M643.682 458.78 L639.904 458.78 C638.339 458.78 637.071 460.049 637.071 461.614 637.071 463.179 638.339 464.447 639.904 464.447 L640.849 464.447 640.849 619.333 610.6 619.333 C609.035 619.333 607.766 620.602 607.766 622.167 607.766 623.732 609.035 625 610.6 625 L643.682 625 C645.247 625 646.515 623.732 646.515 622.167 L646.515 461.614 C646.515 460.049 645.247 458.78 643.682 458.78 Z" fill="#082947" fill-opacity="1" stroke="none"/>
   <path id="Path-111" d="M658.793 458.78 L655.015 458.78 C653.45 458.78 652.182 460.049 652.182 461.614 652.182 463.179 653.45 464.447 655.015 464.447 L655.959 464.447 655.959 619.333 655.015 619.333 C653.45 619.333 652.182 620.602 652.182 622.167 652.182 623.732 653.45 625 655.015 625 L658.793 625 C660.358 625 661.626 623.732 661.626 622.167 L661.626 461.614 C661.626 460.049 660.358 458.78 658.793 458.78 Z" fill="#082947" fill-opacity="1" stroke="none"/>
  </g>
  <defs>
   <text id="string-8" transform="matrix(1.0 0.0 0.0 1.0 504.0 396.0)" x="2.868999999999957" fill="#000000" font-family="HoeflerText-Regular, Hoefler Text" font-size="33" text-decoration="none" y="24.0">bond list</text>
  </defs>
  <use id="bond-list" xlink:href="#string-8"/>
 </g>
 <path id="arrow1" d="M476.768 543.2 L440.387 576.869 443.5 581 487 540.387 443.5 500 440.383 504.126 476.773 537.8 371 537.8 371 543.2 Z" fill="#000000" fill-opacity="1" stroke="none"/>
 <path id="arrow2" d="M785.768 543.2 L749.387 576.869 752.5 581 796 540.387 752.5 500 749.383 504.126 785.773 537.8 680 537.8 680 543.2 Z" fill="#000000" fill-opacity="1" stroke="none"/>
 <path id="arrow3" d="M1113.768 543.2 L1077.387 576.869 1080.5 581 1124 540.387 1080.5 500 1077.382 504.126 1113.773 537.8 1008 537.8 1008 543.2 Z" fill="#000000" fill-opacity="1" stroke="none"/>
 <path id="arrow4" d="M1101.568 294.039 L1099.287 343.556 1104.404 344.314 1106.881 284.853 1047.55 286.619 1048.225 291.746 1097.781 290.189 1022.442 364.431 1026.232 368.277 Z" fill="#000000" fill-opacity="1" stroke="none"/>
 <path id="arrow5" d="M1103.225 760.015 L1053.978 765.661 1054.046 770.833 1113.141 763.796 1101.934 705.505 1096.981 706.99 1106.421 755.663 1021.114 693.129 1017.922 697.484 Z" fill="#000000" fill-opacity="1" stroke="none"/>
</svg>
